<?xml version="1.0" encoding="UTF-8"?>
<svg xmlns="http://www.w3.org/2000/svg" version="1.1" viewBox="0 0 300 55.3">
  <defs>
    <style>
      .cls-1 {
        fill: #371654;
      }

      .cls-2 {
        fill: #c7db53;
      }
    </style>
  </defs>
  <!-- Generator: Adobe Illustrator 28.6.0, SVG Export Plug-In . SVG Version: 1.2.0 Build 709)  -->
  <g>
    <g id="Layer_1">
      <g>
        <g>
          <path class="cls-1" d="M259.9,51.3l-1.3,3.2h-1.9l4.7-11.1h2.3l4.9,11.1h-2l-1.4-3.2h-5.3ZM264.6,49.8c-1.3-2.9-1.9-4.3-2.1-5.1h0c-.2.8-1,2.6-2,5.1h4.2Z"/>
          <path class="cls-1" d="M273.4,43.4h5.5c2.4,0,3.7,1.1,3.7,2.8s-.9,2.1-1.8,2.4c1,.3,2.2,1,2.2,2.7s-1.8,3.3-4.1,3.3h-5.6v-11.1ZM278.4,47.9c1.5,0,2.2-.5,2.2-1.5s-.9-1.5-2.1-1.5h-3.3v3.1h3.3ZM275.2,53h3.4c1.2,0,2.5-.4,2.5-1.8s-.9-1.8-2.6-1.8h-3.3v3.7Z"/>
          <path class="cls-1" d="M290.4,51.3l-1.3,3.2h-1.9l4.7-11.1h2.3l4.9,11.1h-2l-1.4-3.2h-5.3ZM295.1,49.8c-1.3-2.9-1.9-4.3-2.1-5.1h0c-.2.8-1,2.6-2,5.1h4.2Z"/>
        </g>
        <g>
          <path class="cls-1" d="M83.2,30.6c0,1.1-.9,2-2.2,2s-1.8-.6-2.1-1.4l-2.5-5.8h-12.5l-2.5,5.8c-.4.8-1.1,1.4-2.1,1.4s-2.2-.9-2.2-2,.1-.9.3-1.2l10.6-24c.5-1.1,1.1-1.6,2.1-1.6s1.7.6,2.2,1.6l10.6,24c.2.3.3.8.3,1.2ZM74.9,21.9l-4.7-11-4.7,11h9.4Z"/>
          <path class="cls-1" d="M105.7,5.4v25.1c0,1.2-1,2.2-2.2,2.2s-2.2-1-2.2-2.2v-2.2c-.3,1.8-2.8,4.4-6.7,4.4s-10-3.5-10-10.9,5.5-10.9,10-10.9,5.6,1.6,6.7,3.9v-1.6c0-.1,0-.3,0-.4v-7.4c0-1.2,1-2.2,2.1-2.2s2.2,1,2.2,2.2ZM101.6,21.8c0-5.1-3.4-7.1-6.2-7.1s-6.3,2.3-6.3,7.1,3.3,7.2,6.3,7.2,6.2-2.1,6.2-7.2Z"/>
          <path class="cls-1" d="M128.1,13c0,.4-.1.7-.2,1l-7.5,16.9c-.5,1-1.1,1.6-2.2,1.6s-1.7-.6-2.2-1.6l-7.5-16.9c-.1-.3-.2-.6-.2-1,0-1.1.9-2,2-2s1.6.4,2,1.5l5.9,13.8,5.9-13.8c.4-1,1.2-1.5,2-1.5s2,.9,2,2Z"/>
          <path class="cls-1" d="M145.7,14.9v-1.6c0-1.2,1-2.2,2.2-2.2s2.2,1,2.2,2.2v17.3c0,1.2-1,2.2-2.2,2.2s-2.2-1-2.2-2.2v-2.2c-.3,1.8-2.8,4.4-6.7,4.4s-10-3.5-10-10.9,5.5-10.9,10-10.9,5.6,1.6,6.7,3.9ZM145.9,21.8c0-5.1-3.4-7.1-6.2-7.1s-6.3,2.3-6.3,7.1,3.3,7.2,6.3,7.2,6.2-2.1,6.2-7.2Z"/>
          <path class="cls-1" d="M173.9,20.4v10c0,1.2-.9,2.2-2.1,2.2s-2.2-1-2.2-2.2v-10c0-4.1-2.3-5.7-5-5.7-3.9,0-5.6,3.5-5.9,5.3v10.5c0,1.2-1,2.2-2.2,2.2s-2.2-1-2.2-2.2V13.3c0-1.2,1-2.2,2.2-2.2s2.2,1,2.2,2.2v2.7c.2-1.4,2.7-5,7.3-5s7.8,2.5,7.8,9.4Z"/>
          <path class="cls-1" d="M195.8,27.9c0,1-.7,1.5-1.1,2-1.8,1.8-4,2.8-6.9,2.8-4.9,0-10.7-3.6-10.7-10.8s5.9-10.9,10.7-10.9,5.1.9,6.9,2.8c.4.4,1.1,1,1.1,2s-.9,1.7-1.8,1.7-1.4-.4-1.8-.8c-1.1-1.3-2.8-1.9-4.3-1.9-3.4,0-6.6,2.4-6.6,7.1s3.2,7.1,6.6,7.1,3.2-.6,4.3-1.9c.3-.3.9-.8,1.8-.8s1.8.7,1.8,1.7Z"/>
          <path class="cls-1" d="M218.5,21.1c0,1.7-.9,2.3-2.7,2.3h-13.7c.5,3.8,3.4,5.6,6.7,5.6s2.8-.4,4.1-1.2c.7-.4,1.1-.7,1.7-.7.9,0,1.5.7,1.5,1.6s-.2,1.1-1.1,1.8c-1.6,1.3-3.8,2-6.4,2-5.3,0-11-3.4-11-10.8s5.9-10.9,10.6-10.9,10.2,3.7,10.2,10.2ZM202.1,20.3h12.2c-.4-3.9-3.3-5.6-6-5.6s-5.8,1.7-6.1,5.6Z"/>
          <path class="cls-1" d="M237.4,14.9v-1.6c0-1.2,1-2.2,2.2-2.2s2.2,1,2.2,2.2v17.3c0,1.2-1,2.2-2.2,2.2s-2.2-1-2.2-2.2v-2.2c-.3,1.8-2.8,4.4-6.7,4.4s-10-3.5-10-10.9,5.5-10.9,10-10.9,5.6,1.6,6.7,3.9ZM237.6,21.8c0-5.1-3.4-7.1-6.2-7.1s-6.3,2.3-6.3,7.1,3.3,7.2,6.3,7.2,6.2-2.1,6.2-7.2Z"/>
          <path class="cls-1" d="M267.2,21.8c0,7.4-5.4,10.9-10,10.9s-6.4-2.6-6.7-4.4v2.2c0,1.2-1,2.2-2.2,2.2s-2.2-1-2.2-2.2V5.4c0-1.2,1-2.2,2.2-2.2s2.1,1,2.1,2.2v7.4c0,.1,0,.3,0,.4v1.6c1.1-2.4,3.7-3.9,6.7-3.9,4.5,0,10,3.6,10,10.9ZM262.9,21.8c0-4.8-3.3-7.1-6.3-7.1s-6.2,2-6.2,7.1,3.4,7.2,6.2,7.2,6.3-2.3,6.3-7.2Z"/>
          <path class="cls-1" d="M272.8,32.6c-1.2,0-2.2-1-2.2-2.2V5.4c0-1.2,1-2.2,2.2-2.2s2.2,1,2.2,2.2v25c0,1.2-1,2.2-2.2,2.2Z"/>
          <path class="cls-1" d="M299.1,21.1c0,1.7-.9,2.3-2.7,2.3h-13.7c.5,3.8,3.4,5.6,6.7,5.6s2.8-.4,4.1-1.2c.7-.4,1.1-.7,1.7-.7.9,0,1.5.7,1.5,1.6s-.2,1.1-1.1,1.8c-1.6,1.3-3.8,2-6.4,2-5.3,0-11-3.4-11-10.8s5.9-10.9,10.6-10.9,10.2,3.7,10.2,10.2ZM282.7,20.3h12.2c-.4-3.9-3.3-5.6-6-5.6s-5.8,1.7-6.1,5.6Z"/>
        </g>
        <path class="cls-2" d="M1.8,16.6c12.4,0,24.8-.2,37.2-.3-.2-.4-.4-.8-.6-1.2-2.7,2.1-5.5,4.2-7.5,7-2.6,3.6-3.8,8.1-4.7,12.4.7,0,1.3,0,2-.1-.1-11-.3-21.9-.4-32.9-.7.1-1.3.2-2,.3,3.7,9.6,8.7,18.7,15.1,26.8.5-.3,1.1-.7,1.6-1-6.1-4.4-11.9-9.2-18.2-13.3C18,10.1,10.9,7.3,3.4,5.5c-1-.2-1.9,1.2-.7,1.5,7.5,1.8,14.6,4.8,21,9.1,6,3.9,11.5,8.6,17.3,12.7.6.4,2.3-.2,1.6-1-6.3-8-11.3-16.9-14.9-26.5-.3-.8-2-.5-2,.3.1,11,.3,21.9.4,32.9,0,1.1,1.8.7,2-.1.9-4.2,2-8.5,4.6-12,1.9-2.5,4.5-4.4,7-6.4.7-.5.2-1.2-.6-1.2-12.4,0-24.8.2-37.2.3-1.1,0-1.5,1.5-.2,1.5h0Z"/>
      </g>
    </g>
  </g>
</svg>